<?xml version="1.0" encoding="UTF-8"?>
<svg width="192" height="192" viewBox="0 0 192 192" fill="none" xmlns="http://www.w3.org/2000/svg">
  <rect width="192" height="192" rx="32" fill="#1976d2"/>
  <path d="M48 96C48 69.49 69.49 48 96 48C122.51 48 144 69.49 144 96C144 122.51 122.51 144 96 144C69.49 144 48 122.51 48 96ZM133.941 96C133.941 75.0588 116.941 58.0588 96 58.0588C75.0588 58.0588 58.0588 75.0588 58.0588 96C58.0588 116.941 75.0588 133.941 96 133.941C116.941 133.941 133.941 116.941 133.941 96Z" fill="white"/>
  <path d="M96 72C82.7452 72 72 82.7452 72 96C72 109.255 82.7452 120 96 120C109.255 120 120 109.255 120 96C120 82.7452 109.255 72 96 72Z" fill="white"/>
</svg>
